<?xml version="1.0" encoding="UTF-8"?> <svg xmlns="http://www.w3.org/2000/svg" width="134" height="47" viewBox="0 0 134 47" fill="none"><path d="M98.1228 0.860596H106.115C108.13 7.80338 110.142 14.7325 112.152 21.6634L112.285 21.6668V0.899878H120.437V46.7557H113.215C110.874 39.272 108.504 31.6945 106.164 24.2125V46.7283H98.1211V0.860596H98.1228Z" fill="black"></path><path d="M35.4358 46.7861H26.2305V0.914917H35.3863V17.7984H39.2765V0.92858H48.5552V46.7127H39.3772V25.8605H35.4358V46.7861Z" fill="black"></path><path d="M24.2599 46.7579H14.6878C14.3533 44.3521 14.0189 41.9564 13.6743 39.4721H9.14584C8.81653 41.8404 8.48381 44.2343 8.13743 46.7357H0.170898C2.54431 31.3435 4.90578 16.023 7.28089 0.622253H15.8344C18.6344 15.953 21.4343 31.2906 24.2599 46.7579ZM12.8604 34.2561C12.3195 28.3968 11.7888 22.674 11.236 16.6884C10.7787 22.6927 10.3419 28.4173 9.89659 34.2561H12.8604Z" fill="black"></path><path d="M79.6514 1.12598H88.1008C90.87 16.2827 93.6359 31.4309 96.4307 46.7327H86.9763C86.6504 44.4053 86.3143 42.0166 85.9662 39.5305H81.4941C81.1597 41.9295 80.8253 44.3234 80.484 46.7617H72.6113C74.9643 31.506 77.2984 16.3748 79.6514 1.12598ZM83.6235 17.977H83.5092C83.0844 23.4371 82.6578 28.8971 82.2295 34.393H85.1797C84.6524 28.8306 84.1388 23.4029 83.6235 17.977Z" fill="black"></path><path d="M60.2601 39.4867H70.641V46.7093H51.1299V0.914917H60.2601V39.4867Z" fill="black"></path><path d="M124.948 0.882385H133.136C133.628 11.5738 133.242 22.1254 131.336 32.6752H126.767C124.801 22.1612 124.53 11.6045 124.948 0.882385Z" fill="black"></path><path d="M132.919 46.7603H125.07V37.1677H132.919V46.7603Z" fill="black"></path></svg> 