<?xml version="1.0" encoding="UTF-8"?> <svg xmlns="http://www.w3.org/2000/svg" width="150" height="47" viewBox="0 0 239 47" fill="none"><path d="M0.762666 15.5377C1.25875 15.1316 1.76063 15.2534 2.23061 15.2534C7.25525 15.2447 12.2799 15.2099 17.3016 15.265C19.7182 15.2911 22.1203 15.6044 24.3918 16.4979C27.1246 17.5742 28.8624 19.4889 29.0858 22.5089C29.3295 25.8278 27.9805 28.2995 24.9604 29.8023C24.8038 29.8806 24.6384 29.9415 24.4963 30.0024C24.5253 30.4579 24.8183 30.5101 25.091 30.6088C28.1081 31.6967 29.8807 33.7767 30.0837 37.0346C30.2984 40.4637 28.8421 42.9963 25.8308 44.6238C23.449 45.9119 20.8438 46.4746 18.1836 46.5211C12.6802 46.6197 7.17112 46.5501 1.6649 46.5472C1.3864 46.5472 1.10499 46.4979 0.759766 46.466V15.5377H0.762666ZM9.66893 40.513C12.599 40.4404 15.3956 40.7103 18.1662 40.1939C20.078 39.8371 21.1891 38.6853 21.2297 37.0752C21.2703 35.4303 20.3536 34.2844 18.5085 33.855C15.6132 33.1849 12.6744 33.4315 9.66893 33.4489V40.513ZM9.66893 27.7135C12.3872 27.5975 14.9344 27.8992 17.4641 27.4727C19.3034 27.1623 20.4 26.0686 20.4203 24.6209C20.4406 23.1182 19.5877 22.1057 17.731 21.7228C15.0736 21.1774 12.3843 21.5139 9.66893 21.4037V27.7135Z" fill="black"></path><path d="M53.4262 36.1206V15.4302H63.548V46.0248H53.4V41.5456C51.0241 44.0144 48.5437 45.6941 45.4946 46.3207C42.0627 47.0257 38.6771 47.0373 35.5643 45.0994C33.4233 43.7678 32.3731 41.6906 32.2629 39.2827C31.909 31.5572 32.1643 23.823 32.1236 16.0916C32.1236 15.9089 32.2165 15.729 32.2919 15.4476H42.1033C42.4427 15.9553 42.3267 16.4543 42.3296 16.9214C42.3383 22.9469 42.3354 28.9723 42.3267 35.0007C42.3209 38.2499 44.1485 39.7759 47.3397 39.2218C49.649 38.8215 51.5811 37.7249 53.4262 36.1206Z" fill="black"></path><path d="M142.404 45.9671H132.552C132.146 45.4449 132.285 44.943 132.285 44.476C132.276 38.8218 132.27 33.1676 132.285 27.5134C132.294 23.1589 130.225 21.5982 126.019 22.8485C124.237 23.3765 122.665 24.2991 121.11 25.6161V45.9787H111.171V15.59H121.136V19.8952C122.296 18.932 123.149 18.1023 124.118 17.438C128.012 14.7603 132.296 14.0525 136.813 15.3434C140.318 16.3443 142.291 18.906 142.363 22.4772C142.52 30.252 142.412 38.0298 142.412 45.97L142.404 45.9671Z" fill="black"></path><path d="M172.075 36.5663C173.398 38.4346 174.646 40.1985 175.96 42.058C174.144 43.6884 172.073 44.6806 169.879 45.3797C164.301 47.161 158.687 47.3902 153.149 45.255C148.098 43.3055 145.336 39.45 144.512 34.1817C143.738 29.2267 144.295 24.4718 147.718 20.564C152.064 15.6003 157.776 14.1701 164.121 15.0056C172.403 16.0993 176.355 22.325 176.462 30.7874C176.471 31.591 176.462 32.3946 176.462 33.32H154.689C154.266 36.0615 156.268 38.9713 159.183 39.7952C163.062 40.8918 166.616 39.8445 169.99 37.9153C170.654 37.5353 171.275 37.0856 172.075 36.5634V36.5663ZM167.19 27.7268C167.118 23.4071 164.211 21.5533 161.443 21.4402C157.152 21.2661 154.681 24.8751 154.675 27.7268H167.19Z" fill="black"></path><path d="M207.447 42.0006C208.822 40.2135 210.081 38.5773 211.291 37.002C212.022 36.8686 212.362 37.3675 212.797 37.6286C216.539 39.8654 220.528 41.0867 224.932 40.5616C227.041 40.3121 228.344 39.3229 228.448 37.942C228.561 36.4537 227.607 35.4268 225.399 34.8407C222.367 34.0343 219.205 33.8166 216.2 32.8912C211.512 31.4522 209.101 28.8094 209.028 25.0873C208.941 20.5095 211.062 17.1703 215.762 15.7836C222.84 13.6977 229.698 14.5042 236.029 18.5396C236.272 18.6963 236.525 18.8414 236.838 19.027C235.382 20.9272 234.096 22.604 232.747 24.365C230.427 22.9638 228.048 21.8236 225.422 21.3014C223.798 20.9794 222.17 20.8837 220.554 21.3652C219.414 21.7047 218.492 22.3226 218.434 23.6223C218.376 24.8871 219.278 25.4848 220.316 25.9055C222.579 26.8251 225.019 26.9324 227.369 27.443C229.542 27.9159 231.715 28.3888 233.693 29.4564C238.5 32.0557 239.481 38.3568 235.767 42.4241C233.592 44.8088 230.769 45.8967 227.726 46.3405C220.952 47.3298 214.448 46.59 208.538 42.7809C208.335 42.6504 208.141 42.5053 207.946 42.3661C207.83 42.282 207.717 42.1949 207.447 41.9947V42.0006Z" fill="black"></path><path d="M94.4895 19.272C93.1927 20.9604 91.9076 22.6343 90.5934 24.3489C87.6662 22.6547 84.7158 21.2389 81.3448 21.0707C80.0857 21.0068 78.8267 21.03 77.6721 21.6538C76.8656 22.0918 76.265 22.6924 76.2592 23.6845C76.2534 24.6767 76.8394 25.283 77.6546 25.7124C78.6903 26.2607 79.8304 26.4725 80.9677 26.6901C84.0428 27.2761 87.173 27.6416 90.1118 28.8166C93.2827 30.0843 95.5687 32.057 95.7486 35.7704C95.9401 39.7304 94.3213 42.6691 90.8516 44.578C87.7126 46.3041 84.272 46.7683 80.7733 46.7364C75.473 46.69 70.4136 45.6717 65.9837 42.5212C65.7922 42.3848 65.621 42.2165 65.3164 41.9554C66.6451 40.2235 67.9477 38.5235 69.317 36.7422C72.4095 38.9528 75.7167 40.3019 79.3895 40.6268C80.9764 40.766 82.569 40.8153 84.1153 40.2641C85.2844 39.8464 86.2302 39.1704 86.3027 37.8533C86.3752 36.5334 85.531 35.7472 84.3735 35.2627C82.3457 34.4156 80.1699 34.2386 78.0434 33.8295C75.769 33.3915 73.5322 32.8548 71.4115 31.8656C65.212 28.9761 65.9198 20.914 69.8798 17.8215C72.2587 15.9648 74.9538 15.0568 77.8896 14.8537C83.4452 14.4708 88.7831 15.1931 93.567 18.3466C93.889 18.5584 94.2371 18.7266 94.4953 19.272H94.4895Z" fill="black"></path><path d="M177.08 41.9687C178.446 40.2107 179.74 38.5513 181.13 36.7642C183.204 38.1596 185.296 39.3288 187.643 39.9525C190.283 40.6545 192.926 41.0375 195.638 40.3354C197.051 39.9699 198.032 39.1982 198.061 37.678C198.092 36.1753 196.999 35.4964 195.748 35.0613C193.274 34.1967 190.64 34.0808 188.11 33.4541C186.659 33.0944 185.2 32.7695 183.828 32.1399C180.857 30.7793 178.885 28.7196 178.681 25.2528C178.452 21.3654 180.042 18.5252 183.393 16.6424C186.407 14.9511 189.708 14.6581 193.079 14.7712C197.393 14.9163 201.49 15.8447 205.165 18.2235C205.487 18.4324 205.798 18.6645 206.099 18.9023C206.166 18.9546 206.181 19.0706 206.276 19.2853C205.04 20.9099 203.761 22.5838 202.406 24.3651C200.123 23.019 197.82 21.8382 195.252 21.316C193.674 20.994 192.081 20.9012 190.509 21.2609C189.273 21.5423 188.18 22.1689 188.101 23.5992C188.023 24.9859 189.024 25.6096 190.199 26.0129C192.952 26.9586 195.882 27.0572 198.676 27.8173C200.117 28.2119 201.536 28.6413 202.917 29.2418C209.204 31.9746 208.304 39.6421 205.113 42.7317C202.929 44.8466 200.28 45.8968 197.367 46.3203C190.376 47.3328 183.706 46.5582 177.704 42.459C177.547 42.3516 177.402 42.224 177.077 41.9716L177.08 41.9687Z" fill="black"></path><path d="M107.915 45.9826H98.0254V15.4431H107.915V45.9826Z" fill="black"></path><path d="M103.002 0.94382C106.15 0.958325 108.674 3.52868 108.645 6.68794C108.619 9.69925 105.967 12.3044 102.956 12.2783C99.7762 12.2493 97.2 9.66148 97.2639 6.56315C97.3306 3.31685 99.7733 0.926414 103.002 0.94382Z" fill="black"></path><path d="M30.8797 12.1533C30.52 13.4414 29.6294 12.925 28.7852 12.9453V0.82751C29.4089 0.531601 29.9659 0.589648 30.6621 0.781118V5.02541C33.5922 3.76925 36.3859 3.04975 38.5385 6.00304C39.6554 7.5348 39.3189 10.3605 38.0976 11.6921C36.5107 13.424 33.7866 13.6241 30.8797 12.1562V12.1533ZM30.7376 10.343C32.5449 12.0633 35.0224 12.3071 36.3308 10.9407C37.4709 9.75122 37.4013 7.40719 36.2786 6.18874C35.0979 4.90647 32.1968 5.04571 30.7376 6.83277V10.343Z" fill="black"></path><path d="M8.08083 12.0869C6.49104 12.8092 4.97379 13.2966 3.34339 13.1342C2.10173 13.0123 0.865879 12.699 0.578673 11.2514C0.291468 9.81247 1.25172 9.02335 2.40634 8.46925C4.17019 7.61924 6.11971 7.4829 7.9967 7.10867C8.08953 4.84293 6.19804 4.66305 1.97408 6.50813C1.54183 6.38918 1.26623 6.0991 1.09796 5.51598C3.42462 3.94361 5.95725 3.58677 8.62623 4.35265C9.86208 4.70658 10.2015 5.81476 10.245 7.0042C10.3175 8.9189 10.1145 10.8423 10.4162 12.8296C9.45593 13.1893 8.63783 13.3053 8.08373 12.0898L8.08083 12.0869ZM7.98799 8.34452C6.3692 8.5534 4.82293 8.76518 3.40141 9.51076C2.91693 9.76605 2.51658 10.1403 2.58041 10.7553C2.65293 11.4574 3.21284 11.7387 3.79015 11.8055C5.42345 11.9969 6.9146 11.643 8.12725 10.5464C8.18527 9.81822 8.2723 9.20034 7.99089 8.34743L7.98799 8.34452Z" fill="black"></path><path d="M56.0457 12.8838C55.2073 13.0839 54.6474 13.1158 54.0439 12.878V4.20089C54.9984 4.04134 55.8513 3.81214 56.2749 5.05669C57.7022 4.34303 59.1353 3.87309 60.7338 3.99783C62.6862 4.15159 63.6552 5.05384 63.6697 6.98594C63.6842 8.90935 63.6726 10.8327 63.6726 12.6865C63.0488 13.1652 62.486 13.0811 61.8014 12.9273C61.3285 10.6123 62.0364 8.16668 61.3778 5.82552C59.3645 4.78114 57.7718 5.57597 56.0457 6.71029V12.8838Z" fill="black"></path><path d="M27.8049 12.944H26.1571C25.7596 12.8425 25.7306 12.3551 25.4173 12.1086C25.2722 12.1521 25.133 12.1724 25.014 12.2333C23.4184 13.034 21.7387 13.3937 19.9807 13.0049C19.0175 12.7932 18.153 12.3493 17.9761 11.1976C17.7846 9.94722 18.4547 9.17268 19.4469 8.63889C21.0454 7.78017 22.8324 7.56258 24.5876 7.24346C24.8661 7.19124 25.1504 7.15645 25.4231 7.11583C25.4608 4.82689 23.4359 4.63249 19.3831 6.50948C18.9827 6.39634 18.6694 6.14398 18.4779 5.74654C18.5157 5.6392 18.5186 5.51439 18.5795 5.47088C20.5754 4.02325 22.8556 3.78245 25.1968 4.08416C26.7605 4.28433 27.5148 5.30265 27.5409 6.88373C27.5757 8.85355 27.4132 10.8262 27.8049 12.9469V12.944ZM25.3709 8.24141C23.4359 8.82452 21.2746 8.57216 19.9111 10.3708C20.6131 12.3551 23.3082 12.358 25.5072 10.4839C25.6146 9.83989 25.6813 9.17555 25.3709 8.24141Z" fill="black"></path><path d="M50.6872 6.9933C50.4232 4.803 48.4911 4.64634 44.6269 6.49142C44.3426 6.54074 44.1917 6.329 44.0235 6.16944C43.8929 6.0447 43.7885 5.89095 43.6608 5.74009C43.7711 5.57473 43.8233 5.42675 43.9306 5.35423C45.9179 3.97332 48.1662 3.78473 50.4493 4.10385C52.0855 4.33303 52.7615 5.40066 52.8137 7.39949C52.863 9.17784 52.7006 10.962 52.9472 12.7229C52.4714 13.1755 51.9231 12.9666 51.4908 12.9957C50.9686 12.8854 50.9802 12.3661 50.5944 12.1108C50.4638 12.1572 50.2898 12.2094 50.1244 12.2819C48.4592 13.0333 46.7592 13.4511 44.9344 12.9289C43.9771 12.6562 43.2547 12.1456 43.1358 11.0954C43.0168 10.0714 43.5477 9.34027 44.3716 8.81227C45.7467 7.93035 47.3394 7.73311 48.8915 7.39949C49.4891 7.27184 50.1592 7.41686 50.6872 6.9962V6.9933ZM45.0505 10.5471C46.0223 12.3313 48.5578 12.2791 50.6988 10.5356C50.7598 9.86251 50.9309 9.16044 50.5161 8.27562C48.6246 8.88484 46.3472 8.48155 45.0505 10.55V10.5471Z" fill="black"></path><path d="M11.4404 12.7564V4.46799C11.9771 4.03283 12.4906 4.17208 12.9461 4.25041C13.4131 4.52311 13.1926 5.00182 13.4305 5.37025C14.794 4.61017 16.1256 3.67019 17.8431 4.09955C18.0838 4.5202 17.9939 4.92638 17.8111 5.36445C17.1178 5.46598 16.3925 5.49205 15.7137 5.68642C14.3415 6.08097 12.9722 6.9716 13.2739 8.8776C13.4595 10.0496 13.2942 11.2768 13.2768 12.4779C13.2768 12.5678 13.2217 12.6606 13.1781 12.7911C12.624 13.1886 12.0583 13.1248 11.4375 12.7534L11.4404 12.7564Z" fill="black"></path><path d="M41.8718 12.8574C41.2219 13.0576 40.7113 13.0749 40.0586 12.8196V4.35434C40.6707 4.13386 41.2219 4.13097 41.8718 4.36595V12.8574Z" fill="black"></path><path d="M40.1781 2.33796C39.8097 1.897 39.8764 1.53142 40.007 1.13398C40.5698 0.745236 41.1819 0.89904 41.7621 0.965765C42.2553 1.31099 42.1044 1.73452 42.0058 2.16968C41.4372 2.57003 40.8251 2.40468 40.1781 2.33506V2.33796Z" fill="black"></path></svg> 