<?xml version="1.0" encoding="UTF-8"?> <svg xmlns="http://www.w3.org/2000/svg" width="150" height="47" viewBox="0 0 160 47" fill="none"><path d="M104.673 5.69417C104.732 6.63956 104.838 7.58497 104.832 8.52827C104.828 9.08966 105.26 10.0392 104.365 10.0997C103.348 10.1686 103.638 9.12095 103.59 8.51365C103.488 7.19052 103.496 5.86111 103.438 4.53381C103.43 4.32303 103.574 3.98495 103.263 3.92026C102.931 3.85139 102.908 4.22285 102.824 4.42946C102.42 5.42285 102.044 6.4267 101.656 7.42635C101.497 7.8354 101.393 8.29242 100.783 8.23816C100.289 8.19433 100.222 7.80407 100.091 7.45555C99.7358 6.51016 99.3831 5.56266 99.022 4.61936C98.9344 4.38979 98.8008 4.13101 98.517 4.20614C98.421 4.23119 98.3563 4.53383 98.3479 4.71331C98.277 6.10322 98.2331 7.49313 98.158 8.88096C98.1309 9.39017 98.4043 10.1686 97.4923 10.1227C96.7013 10.083 96.9956 9.36722 97.0081 8.93313C97.0832 6.59783 97.2022 4.26251 97.3149 1.92929C97.3378 1.45555 97.1625 0.839908 97.941 0.789821C98.5149 0.752256 98.8655 1.01732 99.0617 1.58914C99.4707 2.78497 99.934 3.96196 100.385 5.1411C100.514 5.48336 100.554 5.9738 100.996 5.98841C101.142 5.99259 101.343 5.50216 101.453 5.21416C101.91 4.0392 102.351 2.8559 102.776 1.67051C102.964 1.15086 103.238 0.743902 103.845 0.783554C104.552 0.829467 104.552 1.38671 104.557 1.90219C104.563 3.16479 104.559 4.42947 104.559 5.69208H104.676L104.673 5.69417Z" fill="black"></path><path d="M137.016 5.36846C137.016 4.22899 137.05 3.08745 137.006 1.95005C136.975 1.12988 137.296 0.808474 138.112 0.839779C139.124 0.877344 140.136 0.837698 141.151 0.846046C141.595 0.85022 141.887 1.07349 141.837 1.54306C141.8 1.90201 141.522 2.0648 141.167 2.07106C140.725 2.07941 140.28 2.10238 139.838 2.07942C138.943 2.02933 138.304 2.06689 138.292 3.32115C138.279 4.5608 138.907 4.65264 139.809 4.63594C140.124 4.62968 140.445 4.61297 140.75 4.66931C141.021 4.7194 141.146 4.94692 141.136 5.23283C141.126 5.51248 141 5.73367 140.723 5.7775C140.414 5.82759 140.088 5.85053 139.78 5.81714C138.615 5.69401 138.331 6.17193 138.304 7.33645C138.271 8.77854 138.859 9.0123 140.095 8.981C140.689 8.96639 141.885 8.34864 141.856 9.59664C141.831 10.5921 140.744 10.1079 140.151 10.1205C137.021 10.1893 137.019 10.1601 137.021 7.08185C137.021 6.51211 137.021 5.94238 137.021 5.37264H137.016V5.36846Z" fill="black"></path><path d="M115.242 5.38325C115.242 6.58534 115.234 7.78535 115.244 8.98743C115.25 9.75543 114.906 10.081 114.128 10.2C111.807 10.5568 110.148 9.67404 109.889 7.83334C109.509 5.13282 110.722 3.26288 113.12 3.3714C113.919 3.40688 114.1 3.02498 114.038 2.34672C114.009 2.03159 114.009 1.71645 114.004 1.39923C113.998 0.975582 114.13 0.627073 114.618 0.62916C115.1 0.62916 115.24 0.994367 115.244 1.40132C115.255 2.72863 115.248 4.05595 115.248 5.38325H115.242ZM114.05 6.7356C114.05 6.42255 114.061 6.10951 114.05 5.79647C114 4.59855 113.51 4.21248 112.441 4.55474C111.452 4.87404 111.166 5.66914 111.131 6.60409C111.093 7.57244 111.137 8.51577 112.199 8.98116C113.345 9.48412 113.979 9.09592 114.048 7.86045C114.069 7.48479 114.052 7.10916 114.052 6.73351L114.05 6.7356Z" fill="black"></path><path d="M122.152 5.24938C122.152 6.51199 122.118 7.77672 122.164 9.03932C122.193 9.84698 121.866 10.1099 121.075 10.1955C117.99 10.5315 116.502 9.22088 116.774 6.31584C116.936 4.5607 118.047 3.34194 119.844 3.36072C120.833 3.37116 121.079 3.13741 120.975 2.2588C120.945 2.01046 120.968 1.75373 120.962 1.50121C120.95 1.02121 121.01 0.587137 121.645 0.626789C122.183 0.66018 122.154 1.09218 122.158 1.45739C122.168 2.72 122.162 3.98468 122.162 5.24729H122.154L122.152 5.24938ZM120.962 6.91685C120.962 6.47442 120.983 6.03202 120.958 5.59167C120.9 4.59619 120.286 4.19966 119.334 4.53774C118.324 4.8967 118.136 5.78783 118.097 6.67688C118.059 7.56383 118.139 8.48624 119.099 8.94955C120.163 9.46294 120.91 9.01425 120.96 7.86225C120.975 7.54712 120.962 7.23199 120.962 6.91685Z" fill="black"></path><path d="M130.768 9.10926C131.465 8.99865 132.129 8.79834 132.185 9.50581C132.237 10.1674 131.524 10.1319 131.039 10.2007C129.353 10.4407 128.111 9.87312 127.54 8.61886C126.863 7.13294 127.166 4.93121 128.23 4.03173C129.119 3.28251 130.144 3.06965 131.219 3.6227C132.396 4.22791 132.582 5.36111 132.646 6.52146C132.673 7.01189 132.298 7.1371 131.885 7.14128C131.192 7.14754 130.493 7.0912 129.804 7.15381C129.389 7.19138 128.702 6.81573 128.623 7.57538C128.562 8.1639 128.919 8.66685 129.482 8.92563C129.95 9.14059 130.457 9.17813 130.764 9.10926H130.768ZM130.044 6.2105C130.361 5.84946 131.252 6.5423 131.267 5.56144C131.277 4.80178 130.695 4.48665 129.996 4.46369C129.251 4.44074 128.735 4.9124 128.698 5.5677C128.639 6.57362 129.568 5.85572 130.044 6.20841V6.2105Z" fill="black"></path><path d="M147.713 7.4144C147.713 7.53961 147.713 7.66693 147.713 7.79215C147.713 10.1024 146.92 10.718 144.639 10.1629C143.69 9.93125 143.088 9.42414 143.013 8.36188C142.936 7.26623 143.387 6.53788 144.362 6.12049C144.641 5.99945 144.988 6.03908 145.282 5.94099C145.691 5.80534 146.44 6.26237 146.457 5.4568C146.476 4.62828 145.77 4.51768 145.107 4.47594C145.044 4.47177 144.977 4.48846 144.919 4.47177C144.437 4.3382 143.571 4.95598 143.52 4.09407C143.468 3.21963 144.424 3.40533 144.986 3.37403C146.874 3.2655 147.613 3.97509 147.709 5.90135C147.734 6.40431 147.713 6.90935 147.715 7.4144H147.713ZM146.519 8.14065C146.499 7.48117 146.57 6.85928 145.674 6.96154C144.952 7.04502 144.261 7.17023 144.249 8.09683C144.238 8.9024 144.798 9.15492 145.486 9.19458C146.29 9.24049 146.628 8.8377 146.519 8.14065Z" fill="black"></path><path d="M150.707 9.11285C151.037 9.11076 151.853 9.25893 152.034 8.32815C152.197 7.48919 151.391 7.36398 150.853 7.08015C149.327 6.27667 148.95 5.57963 149.442 4.47146C149.868 3.51772 151.444 3.01892 152.596 3.46762C152.909 3.58866 153.186 3.73896 153.128 4.13131C153.063 4.56331 152.733 4.53619 152.408 4.50697C152.093 4.47984 151.773 4.44645 151.458 4.45688C151.062 4.46941 150.669 4.57371 150.609 5.03701C150.552 5.46067 150.813 5.75494 151.181 5.93233C151.464 6.07215 151.763 6.18484 152.061 6.29337C153.019 6.64189 153.501 7.29511 153.37 8.33442C153.23 9.4405 152.527 9.99355 151.487 10.1689C151.116 10.2315 150.719 10.2711 150.352 10.2148C149.899 10.1459 149.173 10.315 149.194 9.56784C149.217 8.75393 149.88 9.06276 150.711 9.11285H150.707Z" fill="black"></path><path d="M155.016 6.55184C154.917 6.04888 155.258 5.26213 154.571 4.39187C154.01 3.67813 155.197 2.92893 155.736 2.42388C156.324 1.87293 156.241 2.77656 156.416 3.08125C156.447 3.13551 156.46 3.22734 156.499 3.24195C157.816 3.68021 158.935 3.97656 156.593 4.80508C155.936 5.03673 156.364 6.43707 156.357 7.2969C156.351 8.03985 156.055 9.04784 157.374 9.11045C157.718 9.12715 157.96 9.36297 157.931 9.73027C157.9 10.1393 157.553 10.1644 157.238 10.1998C156.051 10.3334 155.341 9.78873 155.166 8.5616C155.087 8.0023 155.078 7.43045 155.016 6.55184Z" fill="black"></path><path d="M124.019 4.68793C124.019 3.93037 123.956 3.16657 124.04 2.41735C124.106 1.8163 123.551 0.772798 124.559 0.718537C125.684 0.658015 125.123 1.75161 125.15 2.30882C125.231 4.00969 125.177 5.71682 125.189 7.41978C125.196 8.13352 124.937 8.985 126.083 9.14152C126.335 9.17491 126.444 9.47332 126.41 9.74671C126.356 10.1871 125.997 10.1641 125.694 10.162C124.584 10.1558 124.1 9.46292 124.052 8.47161C123.994 7.21109 124.037 5.94845 124.037 4.68584H124.019V4.68793Z" fill="black"></path><path d="M108.343 6.88664C108.343 7.76942 108.351 8.65011 108.338 9.53289C108.334 9.88767 108.136 10.1506 107.777 10.1569C107.362 10.1652 107.042 9.96698 107.045 9.48907C107.051 8.41846 107.088 7.34579 107.082 6.27518C107.08 5.72213 107.232 5.11066 106.771 4.65987C106.519 4.41153 106.02 4.2863 106.299 3.81256C106.619 3.26995 107.199 3.48072 107.677 3.48907C108.126 3.49533 108.341 3.80839 108.345 4.24039C108.355 5.12318 108.347 6.00595 108.347 6.88873H108.341L108.343 6.88664Z" fill="black"></path><path d="M107.45 2.15381C106.856 2.1392 106.818 1.75937 106.828 1.36702C106.841 0.941283 107.01 0.644931 107.505 0.684583C108.06 0.72841 108.268 1.03728 108.193 1.57154C108.127 2.04528 107.818 2.18303 107.45 2.15381Z" fill="black"></path><path d="M0.589844 44.9878C0.717148 44.4223 1.14497 44.2553 1.65002 44.1447C5.07054 43.3913 5.94289 42.3541 6.20167 38.8313C6.73802 31.5687 6.51889 24.2957 6.45002 17.0268C6.43332 15.159 6.21628 13.2682 5.86358 11.4337C5.40028 9.03166 3.98741 7.97357 1.55193 7.984C0.831931 7.98609 0.692105 7.71477 0.694192 7.08034C0.696279 6.43129 0.811062 6.10992 1.58324 6.11201C11.849 6.13497 22.1126 6.13288 32.3784 6.11619C32.9961 6.11619 33.2319 6.26434 33.2257 6.93217C33.1944 10.2838 33.2111 13.6376 33.209 16.9913C33.209 17.1416 33.1839 17.2918 33.1735 17.4212C32.6184 17.559 32.1091 17.7259 31.5853 17.7927C31.3975 17.8157 31.0824 17.6487 30.9926 17.4776C30.7756 17.0748 30.6441 16.624 30.5043 16.1837C29.8469 14.1176 28.6824 12.3979 27.0608 10.96C25.5958 9.66192 23.8323 9.14016 21.9519 9.06085C20.1008 8.98364 18.2413 9.11302 16.386 9.10885C15.6535 9.10885 15.6264 9.60558 15.593 10.0856C15.5199 11.1145 15.4678 12.1454 15.449 13.1763C15.3864 16.7868 15.353 20.3972 15.2758 24.0056C15.2612 24.6901 15.4385 24.9823 16.1815 24.9343C17.1582 24.8717 18.1412 24.903 19.1199 24.9301C21.5053 24.9927 23.2271 23.6988 23.8302 21.3551C23.8949 21.1068 23.945 20.8543 23.9951 20.6017C24.2434 19.3162 24.3206 19.2702 25.7356 19.5895V32.6998C25.4184 32.7186 25.1178 32.7144 24.8236 32.7583C24.2163 32.8459 23.9387 32.5851 23.8406 31.9903C23.6215 30.663 23.1165 29.4421 22.0646 28.5676C21.5721 28.1586 20.946 27.7642 20.3325 27.6724C18.8883 27.4553 17.4149 27.4282 15.954 27.3134C15.4344 27.2737 15.2674 27.5283 15.2883 28.0042C15.426 31.2723 15.5554 34.5405 15.6973 37.8087C15.7328 38.6038 15.6744 39.4407 15.9039 40.1816C16.1857 41.0936 16.6719 41.9576 17.1645 42.7882C17.6737 43.6459 18.6107 43.7899 19.5081 43.9339C19.8378 43.9882 20.1697 44.0341 20.4973 44.0988C21.2361 44.2428 21.618 44.9273 21.2465 45.5659C21.138 45.7538 20.7352 45.8497 20.4681 45.8518C17.657 45.8727 14.8458 45.8644 12.0347 45.8644C8.5015 45.8644 4.96828 45.8644 1.43506 45.8664C1.15332 45.8664 0.87367 45.904 0.59193 45.9249V44.9962L0.589844 44.9878Z" fill="black"></path><path d="M159.095 37.2437C158.926 38.0159 158.83 38.8152 158.576 39.5581C157.249 43.4232 154.473 45.6228 150.483 46.1571C146.542 46.6851 142.619 46.4492 138.8 45.2158C138.435 45.0969 138.067 44.9842 137.606 44.8402C137.606 44.1744 137.606 43.4837 137.606 42.795C137.606 40.9126 137.619 39.028 137.598 37.1456C137.594 36.6802 137.725 36.4005 138.213 36.3588C138.645 36.3233 139.111 36.1918 139.274 36.8096C139.353 37.1059 139.472 37.3919 139.57 37.6861C140.394 40.1759 141.953 42.0499 144.274 43.2791C145.756 44.0638 147.323 44.043 148.851 43.5442C150.403 43.0371 151.286 41.8371 151.524 40.2364C151.754 38.6962 151.23 37.3647 149.877 36.5884C148.346 35.7077 146.695 35.0357 145.113 34.2364C143.831 33.5894 142.492 33.0113 141.325 32.1933C137.233 29.332 137.462 23.6534 140.169 20.5543C142.197 18.2315 144.775 17.0148 147.876 16.8207C151.002 16.6245 154.037 16.9897 157.019 17.9289C157.605 18.1146 157.827 18.3859 157.812 19.0224C157.768 21.0343 157.76 23.0482 157.816 25.058C157.835 25.7446 157.443 25.8865 156.967 26.0305C156.407 26.1995 156.247 25.7925 156.109 25.3877C155.975 24.9995 155.865 24.603 155.731 24.2148C154.901 21.8253 153.298 20.1745 150.921 19.3188C149.45 18.7887 148.064 18.9932 146.895 20.0868C145.689 21.2179 145.405 22.6642 145.791 24.196C145.937 24.7741 146.38 25.3543 146.839 25.7633C148.339 27.0969 150.086 28.0277 152.006 28.6245C154.124 29.2819 155.925 30.4193 157.38 32.1097C158.229 33.0969 158.787 34.1925 158.922 35.4969C158.941 35.6701 159.035 35.835 159.093 36.0019V37.2395L159.095 37.2437Z" fill="black"></path><path d="M90.6786 5.37573V18.6968C91.1732 18.509 91.5906 18.3378 92.0163 18.1875C97.0166 16.4199 101.305 16.8853 104.966 20.6376C107.017 22.7392 107.954 25.3375 108.251 28.2112C108.578 31.3729 108.409 34.4742 107.368 37.5128C105.59 42.7072 100.708 46.3114 95.2219 46.6954C91.1878 46.9771 87.2643 46.4637 83.3387 45.7041C82.7586 45.5914 82.4998 45.3952 82.5019 44.7128C82.5332 36.0477 82.5415 27.3806 82.5081 18.7155C82.4998 16.5055 82.3829 14.2912 82.1992 12.0895C82.0448 10.2321 81.3144 9.50581 79.4549 9.06755C78.9958 8.95902 78.6556 8.8672 78.5846 8.28912C78.5283 7.8279 78.7015 7.66719 79.0772 7.59414C82.8859 6.86371 86.6946 6.13747 90.6744 5.37573H90.6786ZM99.5982 31.3959C99.5314 30.3942 99.4396 29.3945 99.402 28.3907C99.3186 26.141 98.5046 24.2022 97.0751 22.4721C95.5954 20.6815 93.7193 20.2432 91.5279 20.6168C90.9227 20.7211 90.7349 20.9778 90.7432 21.583C90.7766 24.2376 90.7433 26.8944 90.7683 29.549C90.8142 34.1904 90.8852 38.8297 90.9499 43.4711C90.9624 44.406 91.1439 44.6209 92.0497 44.6982C93.7798 44.8463 95.2699 44.3768 96.3175 42.9055C96.7954 42.2356 97.2566 41.5489 97.6594 40.831C99.306 37.8947 99.5106 34.662 99.5982 31.3959Z" fill="black"></path><path d="M56.8991 30.8667C56.849 34.5501 56.5193 37.5345 54.8518 40.1891C51.7756 45.0851 47.2281 47.001 41.5808 46.761C38.392 46.6253 35.5787 45.6486 33.2247 43.4615C31.1273 41.5123 29.9607 39.0663 29.3805 36.2948C28.6647 32.8764 28.7419 29.483 29.754 26.1397C31.313 20.9891 36.0587 17.2785 41.4243 16.8214C43.7826 16.6211 46.0574 16.8361 48.2674 17.6249C52.9777 19.307 55.5426 22.834 56.561 27.5818C56.8344 28.8569 56.8386 30.1884 56.9033 30.8646L56.8991 30.8667ZM48.4699 33.3397C48.3426 31.5804 48.257 29.1053 47.9627 26.6531C47.6956 24.4451 47.1113 22.2934 45.6316 20.5279C43.7095 18.2343 40.9443 18.4368 39.6087 21.1122C38.8991 22.5335 38.4358 24.1467 38.2 25.7244C37.6198 29.5895 37.674 33.4858 38.1833 37.3613C38.442 39.3314 38.9367 41.2597 40.0532 42.9544C40.8838 44.217 42.017 45.1728 43.5801 44.8222C45.0494 44.4924 46.3287 43.666 46.9297 42.1279C47.944 39.5317 48.3801 36.827 48.472 33.3397H48.4699Z" fill="black"></path><path d="M135.828 30.5492C135.388 30.5492 135.079 30.5492 134.772 30.5492C129.793 30.5492 124.816 30.5639 119.836 30.5326C119.106 30.5284 118.943 30.76 118.941 31.4508C118.934 33.5211 119.337 35.4912 120.18 37.3736C121.808 41.0153 125.346 43.0209 129.305 42.6348C130.987 42.4699 132.518 41.9774 133.929 41.055C134.251 40.8442 134.593 40.5186 135 40.9965C135.392 41.4598 135.14 41.7917 134.854 42.1485C133.099 44.3357 130.74 45.5795 128.088 46.2202C124.836 47.0049 121.572 46.9548 118.49 45.5023C113.976 43.3757 111.338 39.7944 110.687 34.8337C110.246 31.4696 110.418 28.1346 111.776 24.9687C113.892 20.0414 117.632 17.2386 122.977 16.696C126.093 16.3809 129.054 16.8505 131.529 18.9833C134.28 21.3499 135.659 24.3885 135.826 27.9906C135.864 28.8087 135.833 29.6289 135.833 30.5492H135.828ZM127.055 28.2474C127.355 26.4171 126.744 22.3621 126.003 20.7719C124.997 18.6139 122.91 18.2613 121.399 20.104C119.598 22.3016 119.001 24.9457 119.005 27.736C119.005 27.9071 119.329 28.2244 119.506 28.2265C122.023 28.2578 124.54 28.2494 127.057 28.2494L127.055 28.2474Z" fill="black"></path><path d="M69.1511 16.6127V22.525L69.3661 22.5877C69.5601 22.2475 69.7542 21.9053 69.9504 21.5651C71.3528 19.1379 73.2916 17.3473 76.1007 16.7964C77.4238 16.5355 78.8471 16.4186 80.0116 17.4057C80.2224 17.5852 80.4478 18.0172 80.3727 18.2218C79.4669 20.6239 78.5048 23.0051 77.549 25.4071C76.4241 25.0148 75.4078 24.5765 74.3497 24.3073C72.7177 23.8941 71.1066 24.0443 69.6895 25.0231C69.3452 25.261 69.0029 25.8016 69.0071 26.1981C69.0572 31.3007 69.1448 36.4033 69.2826 41.5059C69.3222 42.973 70.4888 43.9122 72.2377 44.0979C72.772 44.1543 73.3021 44.2273 73.8718 44.2962V45.8176H57.0301V44.3421C57.3473 44.2732 57.6436 44.2106 57.9421 44.1459C59.8767 43.7265 60.4652 43.1024 60.6697 41.1616C61.1998 36.1466 61.0412 31.1192 60.8847 26.0938C60.8554 25.1692 60.7887 24.2405 60.6864 23.3223C60.4923 21.588 59.8161 20.8743 58.1215 20.5341C57.8941 20.4882 57.6687 20.4298 57.4412 20.4068C56.9862 20.3588 56.8798 20.0436 56.9737 19.6951C57.0405 19.4489 57.2283 19.0878 57.4203 19.0482C61.2624 18.228 65.1107 17.4454 69.1553 16.6148L69.1511 16.6127Z" fill="black"></path></svg> 