<svg width="436" height="35" viewBox="0 0 436 35" fill="none" xmlns="http://www.w3.org/2000/svg">
<path d="M0.0541992 34.423H2.9542V17.05H15.0262V14.284H2.9542V3.219H18.4062V0.453003H0.0541992V34.423Z" fill="black"/>
<path d="M45.693 14.8659C46.5372 14.0879 47.2098 13.1422 47.6679 12.0895C48.1259 11.0367 48.3592 9.90001 48.353 8.75195C48.3591 7.60391 48.1257 6.46722 47.6677 5.41448C47.2097 4.36174 46.5371 3.4161 45.693 2.63795C43.8752 1.07604 41.5163 0.291281 39.125 0.452947H27.582V34.4229H30.482V17.0499H36.182L49.218 34.4229H52.695L39.653 17.0499C41.8711 17.118 44.0315 16.3369 45.693 14.8659ZM30.48 14.2839V3.21895H38.98C41.395 3.21895 42.699 3.75295 43.665 4.67495C44.2284 5.19405 44.6781 5.82431 44.9857 6.52594C45.2933 7.22758 45.4521 7.98535 45.4521 8.75145C45.4521 9.51754 45.2933 10.2753 44.9857 10.977C44.6781 11.6786 44.2284 12.3088 43.665 12.8279C42.699 13.7499 41.395 14.2839 38.98 14.2839H30.48Z" fill="black"/>
<path d="M73.0762 0.453003L58.4922 34.423H61.3922L65.8352 24.183H82.2562L86.6922 34.423H89.5922L75.0082 0.453003H73.0762ZM66.9922 21.418L74.0432 5.018L81.0432 21.418H66.9922Z" fill="black"/>
<path d="M122.674 28.746L99.9764 0.453003H98.0444V34.423H100.944V6.131L123.644 34.423H125.576V0.453003H122.676L122.674 28.746Z" fill="black"/>
<path d="M161.793 0.453003H157.929L141.992 15.691V0.453003H139.092V34.423H141.992V17.244L159.378 34.423H163.238L145.083 16.516L161.793 0.453003Z" fill="black"/>
<path d="M266.887 2.57599C264.995 1.1069 262.63 0.381899 260.239 0.537985H247.67V34.509H250.581V18.109H260.238C262.629 18.2657 264.994 17.5407 266.886 16.071C267.86 15.2375 268.642 14.203 269.179 13.0386C269.715 11.8742 269.992 10.6074 269.992 9.32549C269.992 8.04355 269.715 6.77682 269.179 5.61239C268.642 4.44796 267.86 3.41345 266.886 2.57999L266.887 2.57599ZM265.334 13.544C264.218 14.659 262.713 15.344 260.093 15.344H250.581V3.30399H260.093C262.714 3.30399 264.218 3.98399 265.334 5.10399C266.453 6.22427 267.081 7.74277 267.081 9.32598C267.081 10.9092 266.453 12.4277 265.334 13.548V13.544Z" fill="black"/>
<path d="M294.646 0.0529785C285.038 0.0529785 277.758 7.62398 277.758 17.524C277.758 27.424 285.037 34.994 294.646 34.994C304.255 34.994 311.534 27.423 311.534 17.524C311.534 7.62498 304.254 0.0529785 294.646 0.0529785ZM294.646 32.228C286.446 32.228 280.67 25.579 280.67 17.528C280.67 9.47698 286.445 2.82798 294.646 2.82798C302.847 2.82798 308.622 9.47698 308.622 17.528C308.622 25.579 302.847 32.228 294.646 32.228Z" fill="black"/>
<path d="M339.682 14.951C340.524 14.1704 341.196 13.2244 341.655 12.1723C342.114 11.1201 342.351 9.98448 342.351 8.83649C342.351 7.68849 342.114 6.55287 341.655 5.50072C341.196 4.44858 340.524 3.50259 339.682 2.72199C337.853 1.1588 335.483 0.374763 333.082 0.537987H321.482V34.509H324.394V17.135H330.121L343.221 34.509H346.716L333.616 17.135C335.842 17.2033 338.011 16.4225 339.682 14.951ZM324.396 14.369V3.30399H332.937C335.364 3.30399 336.674 3.83799 337.644 4.75999C338.21 5.27756 338.662 5.90731 338.972 6.60915C339.281 7.31099 339.441 8.06954 339.441 8.83649C339.441 9.60344 339.281 10.362 338.972 11.0638C338.662 11.7657 338.21 12.3954 337.644 12.913C336.674 13.835 335.363 14.369 332.937 14.369H324.396Z" fill="black"/>
<path d="M349.875 3.30509H359.581V34.5051H362.492V3.30509H372.201V0.538086H349.875V3.30509Z" fill="black"/>
<path d="M384.332 17.1351H396.464V14.3691H384.332V3.30509H399.861V0.538086H381.419V34.5081H400.345V31.7421H384.332V17.1351Z" fill="black"/>
<path d="M422.666 17.135C424.892 17.2032 427.061 16.4224 428.732 14.951C429.574 14.1704 430.245 13.2244 430.705 12.1723C431.164 11.1201 431.401 9.98448 431.401 8.83649C431.401 7.68849 431.164 6.55287 430.705 5.50072C430.245 4.44858 429.574 3.50259 428.732 2.72199C426.902 1.1588 424.533 0.374763 422.132 0.537987H410.532V34.509H413.444V17.135H419.17L432.27 34.509H435.764L422.666 17.135ZM413.446 14.369V3.30399H421.987C424.413 3.30399 425.724 3.83799 426.694 4.75999C427.26 5.27764 427.712 5.90742 428.021 6.60925C428.33 7.31108 428.49 8.06958 428.49 8.83649C428.49 9.60339 428.33 10.3619 428.021 11.0637C427.712 11.7656 427.26 12.3953 426.694 12.913C425.724 13.835 424.413 14.369 421.987 14.369H413.446Z" fill="black"/>
<path d="M199.82 0.567871V11.6399L209.446 6.10387L199.82 0.567871Z" fill="black"/>
<path d="M219.073 0.567871L209.447 6.10387L219.073 11.6399V0.567871Z" fill="black"/>
<path d="M190.55 0.590942L185.088 3.73494V34.5589H209.422L209.412 34.5409H219.078V17.1069L209.401 34.5229L190.55 0.590942Z" fill="black"/>
</svg>
