<?xml version="1.0" encoding="UTF-8"?> <svg xmlns="http://www.w3.org/2000/svg" width="150" height="51" viewBox="0 0 280 51" fill="none"><path d="M279.944 14.9392C277.623 17.639 275.306 20.3355 272.992 23.0287C274.631 23.9727 276.172 24.8044 277.649 25.7451C277.988 25.9596 278.279 26.5372 278.289 26.9563C278.347 29.6033 278.347 32.2537 278.289 34.9007C278.279 35.2968 277.943 35.8479 277.601 36.0427C275.536 37.2177 273.432 38.32 271.322 39.4125C271.021 39.5676 270.562 39.6667 270.271 39.5479C266.3 37.9372 262.341 37.5214 258.372 39.5644L258.13 39.3597C260.512 36.376 262.893 33.3891 265.45 30.1909C263.895 29.6727 262.525 29.2172 261.042 28.7254C261.042 25.1807 261.029 21.5501 261.067 17.9195C261.071 17.6225 261.387 17.2231 261.665 17.0515C264.092 15.5662 266.535 14.1041 269.008 12.6948C269.302 12.5265 269.88 12.5991 270.194 12.7872C272.411 14.1239 274.773 14.9523 277.362 14.9325C278.228 14.9259 279.09 14.6322 279.957 14.4672V14.9425L279.944 14.9392ZM267.511 17.5432V21.2234C267.511 24.0288 267.511 24.0387 270.165 24.6196C270.417 24.6757 270.817 24.6031 270.973 24.4282C272.882 22.2861 274.76 20.1176 276.861 17.7083C273.568 18.7347 270.611 18.7116 267.511 17.5465V17.5432ZM271.822 34.4749C271.822 32.927 271.923 31.5408 271.764 30.1842C271.716 29.7684 271.011 29.2634 270.514 29.1017C269.583 28.8046 268.09 28.2337 267.692 28.6429C265.724 30.6728 264.037 32.9864 262.25 35.201C265.336 34.0029 268.394 33.1745 271.826 34.4749H271.822Z" fill="black"></path><path d="M127.604 50.7788C126.305 50.5643 124.964 50.485 123.72 50.0923C122.479 49.7028 121.218 49.1649 120.171 48.3991C118.252 46.9964 117.379 44.9731 117.967 42.577C118.549 40.2039 120.281 38.9794 122.572 38.6296C125.407 38.1972 127.863 38.9596 129.824 41.3657C128.916 41.039 128.147 40.6098 127.336 40.4976C124.783 40.1445 122.97 42.4879 124.12 44.8279C124.67 45.9501 125.71 47.0195 126.793 47.6367C131.324 50.221 138.685 48.4519 141.765 44.2008C142.715 42.8872 143.236 41.4251 143.236 39.788C143.239 33.1837 143.252 26.5793 143.213 19.975C143.213 19.4436 142.948 18.8264 142.618 18.4006C141.975 17.5656 141.2 16.8395 140.401 15.9813C142.182 14.7931 143.918 13.6314 145.876 12.3211C147.127 13.9417 148.351 15.5061 149.541 17.1003C149.709 17.3247 149.747 17.691 149.747 17.9914C149.754 25.8631 149.747 33.7316 149.744 41.6033C149.744 41.6792 149.712 41.7552 149.667 41.9631C146.273 42.1446 143.701 44.2437 141.041 46.1349C137.506 48.6466 133.722 50.4488 129.327 50.6204C129.139 50.627 128.955 50.7227 128.771 50.7788H127.604Z" fill="black"></path><path d="M19.2765 10.362C19.2765 14.9893 19.2991 19.6134 19.2668 24.2407C19.2507 26.5478 18.9857 28.8219 17.6187 30.8088C18.9049 31.0332 19.1731 31.0233 19.5577 29.9473C20.0263 28.6304 20.4593 27.2244 20.5045 25.8415C20.637 21.7719 20.7017 17.6892 20.5466 13.6229C20.4044 9.98246 21.5193 7.04172 24.2888 4.74456C24.7283 4.3782 25.1581 4.0019 25.5912 3.62894L25.3876 3.39131C25.0127 3.63555 24.6249 3.86328 24.2662 4.13062C20.7792 6.72814 16.9626 7.47407 12.7841 6.29248C11.9633 6.06145 11.1263 5.87663 10.286 5.7248C8.18867 5.34524 7.17716 5.49373 4.9861 6.43108C6.63101 2.07109 11.7629 -0.60891 16.4908 0.351542C18.9146 0.84332 21.3512 1.39448 23.8041 1.56611C25.3294 1.67173 26.8968 1.11724 28.1636 0.909311C27.834 2.90283 27.3137 5.04159 27.1618 7.21004C26.9808 9.78775 27.1198 12.3852 27.3912 15.0685C30.7037 10.2762 34.0129 5.4871 37.3738 0.625431C40.557 2.62885 43.737 2.6817 46.9557 0.922526C46.9202 2.72131 44.3962 5.64556 42.0468 6.59941C39.4098 7.66878 36.944 6.99217 34.4492 5.68516C32.8366 8.01863 31.2337 10.3323 29.6146 12.6756C31.4211 14.2137 33.2405 15.6858 34.9598 17.27C35.4898 17.7585 35.8808 18.5044 36.1135 19.2074C37.3221 22.871 38.3207 26.6171 39.6651 30.2246C40.8931 33.5185 44.881 35.6803 48.5198 35.2941C48.5198 34.9278 48.5198 34.5482 48.5198 34.1654C48.5198 25.5444 48.5166 16.9201 48.5231 8.29915C48.5231 6.51026 48.2387 4.83033 46.7295 3.21968C48.5134 3.83357 49.4861 4.88312 50.3522 6.42117C51.0793 4.48046 52.3203 3.18997 54.0169 2.39124C55.6877 1.60902 57.4328 1.25915 59.3265 1.63541C55.678 2.8335 55.0284 5.75447 55.0381 9.0715C55.0446 11.7581 55.0381 14.4481 55.0381 17.4086C57.5265 15.6527 59.8597 14.0058 62.4289 12.1938C63.6634 13.8407 64.9011 15.4448 66.0678 17.0984C66.2843 17.4053 66.2617 17.9268 66.2617 18.3493C66.2746 23.0955 66.3004 27.8416 66.2455 32.5877C66.2326 33.5977 66.4976 34.2248 67.4251 34.5978C68.2524 34.9311 69.0538 35.3371 70.0039 35.7728C68.6563 37.0072 67.354 38.2317 66.0031 39.4C65.8092 39.5684 65.2954 39.5815 65.0595 39.4396C63.4016 38.4396 61.7535 37.4131 60.1635 36.3041C59.8791 36.1061 59.7693 35.4823 59.7693 35.0532C59.7434 30.3467 59.7272 25.6401 59.766 20.9336C59.7822 19.115 58.7998 17.9136 57.5911 16.8079C57.4457 16.6759 57.1645 16.5868 56.9836 16.6297C56.0044 16.8674 55.0381 18.1776 55.0381 19.2107C55.0381 23.6796 55.0801 28.1486 55.0058 32.6175C54.9864 33.7132 55.3548 34.304 56.292 34.6803C57.0708 34.9938 57.8303 35.3668 58.7125 35.7629C57.3584 37.0105 56.0884 38.225 54.7569 39.367C54.5598 39.5353 54.0104 39.476 53.7325 39.3208C51.9389 38.3208 50.1712 37.2679 48.2419 36.1424C47.0042 37.0203 45.5435 37.9907 44.1635 39.07C43.4429 39.6344 42.8127 39.6674 42.0307 39.301C38.8216 37.796 35.9454 35.819 33.3827 33.0267C30.959 35.2018 28.5255 37.3801 26.0307 39.6179C22.9735 37.6738 19.5868 36.7959 16.0028 36.654C11.9245 36.4923 8.00447 37.1788 4.48519 39.3736C3.32179 40.0997 2.20687 41.08 1.40865 42.1956C-0.659619 45.0802 0.726765 48.1959 4.18788 48.7405C4.57568 48.8032 4.96348 48.8857 5.59042 49.0045C3.42197 49.8627 0.875421 48.45 0.248478 46.275C-0.333221 44.2518 0.17415 42.354 1.06932 40.5519C2.14546 38.3868 3.79684 36.72 5.71322 35.3173C8.88995 32.9904 12.3608 31.4326 16.3066 31.0596C16.688 31.0233 17.2535 30.6833 17.3634 30.3533C17.874 28.8383 18.5494 27.2937 18.6173 25.7358C18.8079 21.5112 18.7045 17.2766 18.753 13.0453C18.7627 12.1278 18.9243 11.2135 19.0147 10.296L19.2733 10.362H19.2765ZM30.8265 34.5515C31.3145 34.1423 31.88 33.5944 32.5134 33.1488C33.15 32.7032 33.1468 32.2445 32.9141 31.5481C32.0028 28.7856 31.0915 26.0197 30.3256 23.2143C29.844 21.4584 28.5126 20.6035 27.1682 19.4946C27.6497 24.8843 25.8271 28.8581 20.692 30.8583C22.5437 31.2708 24.2888 31.482 25.9014 32.0695C27.556 32.6735 29.0781 33.6505 30.8265 34.5515Z" fill="black"></path><path d="M169.567 8.03442C163.446 15.5992 165.954 26.7351 171.083 30.5076C172.136 29.2006 172.595 27.6461 172.611 26.0223C172.673 19.6952 172.647 13.3681 172.676 7.04096C172.679 6.34125 172.362 6.20262 171.774 6.12671C167.977 5.64153 164.603 6.49967 161.798 9.26551C161.691 9.37113 161.559 9.45361 161.42 9.56253C161.316 7.60532 162.603 4.85272 164.393 3.16285C166.71 0.971302 169.554 0.189078 172.614 0.0273524C176.114 -0.160777 179.478 0.651112 182.826 1.55546C185.774 2.35088 188.756 2.93507 191.791 2.12644C192.938 1.81949 194.021 1.2749 195.242 0.796319C194.832 3.36083 193.717 5.4567 191.587 6.94193C189.5 8.39746 187.102 8.54928 184.614 8.50307V33.3461C187.852 32.8444 190.657 30.0918 193.717 24.4248C193.924 29.0455 189.723 37.3199 180.955 39.2837C172.598 41.1584 164.322 36.4057 161.908 28.2336C159.171 18.9525 164.076 10.5593 169.56 8.03442H169.567ZM172.53 31.8278C176.292 34.0161 180.002 34.7719 183.996 33.6431V8.5262C183.101 8.43378 182.274 8.34794 181.327 8.24893C181.327 8.86282 181.327 9.29188 181.327 9.72095C181.327 13.7146 181.298 17.7115 181.337 21.7052C181.362 24.2862 180.451 26.4315 178.567 28.1048C177.669 28.9036 176.638 29.5637 175.613 30.2007C174.696 30.7684 173.707 31.2172 172.53 31.8311V31.8278ZM173.17 6.58214V7.942C173.17 12.8829 173.173 17.827 173.17 22.7679C173.167 25.6031 173.393 28.4911 171.386 30.7981C172.004 31.6464 172.424 31.4648 172.905 30.8179C174.266 28.9961 174.699 26.9035 174.705 24.6888C174.718 19.1143 174.683 13.5397 174.734 7.96513C174.744 6.85285 174.359 6.46663 173.17 6.58214Z" fill="black"></path><path d="M225.603 17.324C228.023 15.6836 230.476 14.0202 233.11 12.2346C234.389 13.842 235.679 15.4097 236.894 17.0402C237.14 17.3703 237.169 17.9313 237.169 18.3835C237.188 23.1296 237.211 27.8758 237.156 32.622C237.143 33.6418 237.43 34.2524 238.358 34.6155C239.153 34.929 239.916 35.3251 240.856 35.7575C239.486 37.0084 238.183 38.2229 236.836 39.3913C236.674 39.53 236.238 39.5101 236.025 39.3913C234.528 38.5563 233.055 37.6816 231.578 36.807C230.873 36.3911 230.631 35.7806 230.638 34.9323C230.676 30.7011 230.654 26.4665 230.654 22.2352C230.654 19.2912 230.085 18.2514 227.59 16.6375C227.519 16.6639 227.448 16.6903 227.377 16.72C225.861 17.3999 225.318 18.4792 225.389 20.245C225.551 24.232 225.512 28.2356 225.399 32.2259C225.36 33.5857 225.79 34.3811 226.94 34.9059C227.435 35.1303 227.904 35.4142 228.527 35.7508C227.37 36.9852 226.265 38.1866 225.124 39.3517C224.982 39.4969 224.656 39.4838 224.413 39.4838C224.271 39.4838 224.129 39.3682 223.987 39.3022C218.897 36.9258 218.861 36.8664 218.861 31.2358C218.861 28.1894 218.703 25.133 218.91 22.1032C219.084 19.5122 217.921 17.9214 215.943 16.6474C214.418 17.2514 213.623 18.1657 213.704 20.0668C213.878 24.133 213.817 28.2158 213.723 32.2853C213.694 33.5824 214.085 34.3745 215.219 34.8663C215.752 35.0974 216.26 35.3944 216.942 35.7409C215.778 36.9819 214.66 38.2064 213.497 39.3814C213.355 39.5233 212.899 39.5135 212.689 39.3946C211.099 38.4903 209.499 37.5991 207.99 36.5661C207.58 36.2855 207.269 35.5429 207.263 35.0049C207.208 30.3776 207.163 25.7469 207.269 21.1229C207.305 19.5189 206.856 18.291 205.767 17.2184C205.437 16.8916 205.146 16.5253 204.742 16.0665C206.387 14.8024 207.984 13.578 209.703 12.2577C211.099 13.9542 212.463 15.6144 213.891 17.3471C216.308 15.6969 218.755 14.0301 221.353 12.2544C222.743 13.9113 224.122 15.5516 225.606 17.3174L225.603 17.324Z" fill="black"></path><path d="M92.5109 35.7802C91.1536 37.0179 89.8771 38.2193 88.5424 39.3513C88.342 39.523 87.7991 39.4767 87.5277 39.3249C85.7309 38.3249 83.9631 37.2687 82.0242 36.1399C80.864 37.0542 79.5455 38.1434 78.1591 39.1402C77.8262 39.3778 77.1767 39.5065 76.8438 39.3348C75.0825 38.4338 73.3504 37.4668 71.6699 36.4172C71.3112 36.1928 71.0333 35.5293 71.03 35.064C70.9848 30.1264 70.9848 25.1855 71.03 20.248C71.0333 19.7991 71.3564 19.1885 71.7216 18.9344C74.7691 16.8253 77.8553 14.7691 80.9577 12.7426C81.2679 12.5412 81.8755 12.4752 82.176 12.6468C84.128 13.7822 86.0249 15.01 87.951 16.1883C88.62 16.5976 88.8397 17.1389 88.8333 17.9409C88.7945 22.8785 88.8397 27.8193 88.7913 32.7569C88.7816 33.6877 89.0466 34.2389 89.8836 34.5788C90.7335 34.9254 91.5543 35.3347 92.5077 35.7703L92.5109 35.7802ZM77.5289 17.5316V18.9871C77.5289 23.4494 77.6097 27.9184 77.4837 32.3774C77.4384 33.9484 78.088 34.7339 79.3483 35.2422C79.9203 35.4732 80.5247 35.6383 81.129 35.7736C81.953 35.9585 82.315 35.6614 82.3053 34.7273C82.2698 30.1066 82.2956 25.4825 82.2762 20.8618C82.2762 20.4988 82.2051 20.0037 81.9724 19.7924C80.7541 18.6802 79.3806 17.8254 77.5289 17.5316Z" fill="black"></path><path d="M134.577 12.2292C136.936 15.3581 139.266 18.4474 141.658 21.6159C138.142 24.0747 134.816 26.4016 131.491 28.7285C130.159 29.6592 129.743 30.7319 130.14 32.3194C130.198 32.5439 130.412 32.8145 130.618 32.9036C132.683 33.8047 134.752 34.7058 136.852 35.5144C137.172 35.6365 137.734 35.3823 138.067 35.1414C138.966 34.4912 139.8 33.7519 140.856 33.2436C140.721 33.4317 140.617 33.6528 140.446 33.7981C138.339 35.61 136.238 37.4287 134.092 39.1944C133.785 39.4453 133.194 39.6235 132.851 39.5014C130.008 38.4749 127.18 37.3924 124.378 36.2504C124.039 36.1118 123.683 35.5078 123.677 35.115C123.628 30.1346 123.635 25.1507 123.667 20.167C123.667 19.8006 123.854 19.2791 124.129 19.0943C127.532 16.8169 130.967 14.5891 134.574 12.2325L134.577 12.2292ZM130.176 29.0453C132.189 27.6162 133.999 26.3323 136.015 24.9032C134.134 22.4014 132.305 19.9689 130.476 17.5365L130.176 17.7477V29.0486V29.0453Z" fill="black"></path><path d="M122.053 33.2854C121.859 33.4999 121.687 33.7375 121.471 33.9223C119.422 35.6815 117.38 37.4506 115.292 39.157C114.962 39.4243 114.329 39.6092 113.961 39.4771C111.152 38.4705 108.376 37.3681 105.584 36.3086C104.925 36.0578 104.786 35.5957 104.789 34.9257C104.815 30.064 104.786 25.2024 104.831 20.3407C104.834 19.8819 105.106 19.2383 105.461 18.9974C108.793 16.7497 112.17 14.5681 115.738 12.2346C118.081 15.3305 120.414 18.4131 122.819 21.5916C121.852 22.2814 121.041 22.8689 120.224 23.4432C117.473 25.3707 114.717 27.2883 111.97 29.2224C110.8 30.0442 110.91 32.5361 112.19 33.117C114.028 33.9554 115.896 34.731 117.79 35.4274C118.191 35.5759 118.847 35.4076 119.225 35.1435C120.143 34.5098 120.97 33.7342 121.833 33.0147L122.053 33.2821V33.2854ZM111.65 17.5221L111.343 17.72V29.0508C113.317 27.6513 115.15 26.3542 117.179 24.9152C115.292 22.3903 113.473 19.9578 111.65 17.5221Z" fill="black"></path><path d="M252.821 12.2292C255.19 15.368 257.5 18.4308 259.882 21.5861C258.926 22.2759 258.147 22.847 257.358 23.3982C254.608 25.3257 251.848 27.24 249.101 29.1741C247.857 30.0487 247.973 32.5307 249.334 33.1578C251.099 33.9697 252.921 34.643 254.702 35.422C255.364 35.7091 255.849 35.61 256.382 35.1282C257.193 34.3955 258.072 33.7387 258.922 33.0489L259.407 33.5869C259.097 33.7255 258.732 33.7981 258.48 34.0093C256.499 35.6662 254.521 37.3263 252.585 39.036C251.984 39.5674 251.431 39.7159 250.691 39.4255C248.022 38.3726 245.33 37.3791 242.68 36.2734C242.318 36.1216 241.943 35.4747 241.937 35.0523C241.885 30.0718 241.895 25.0913 241.927 20.1108C241.927 19.751 242.144 19.2428 242.422 19.0546C245.792 16.8004 249.195 14.5957 252.815 12.2292H252.821ZM248.39 29.0685C250.426 27.6393 252.259 26.3521 254.156 25.0187C252.411 22.3783 250.753 19.8137 248.39 17.4638V29.0685Z" fill="black"></path><path d="M92.2273 3.15796C93.2646 4.13822 94.302 5.11519 95.3103 6.06904C97.2331 2.6035 100.788 0.774936 104.139 1.62317C104.117 1.68918 104.107 1.79812 104.068 1.81132C101.069 2.80148 100.106 5.17785 100.077 8.08231C100.028 13.0661 100.061 18.0499 100.058 23.0337C100.058 26.2781 100.103 29.5225 100.032 32.7636C100.012 33.7175 100.339 34.2257 101.143 34.569C101.987 34.9255 102.814 35.3315 103.768 35.7704C102.407 37.0114 101.121 38.2062 99.8023 39.3647C99.6439 39.5033 99.324 39.4835 99.0816 39.4802C98.9394 39.4802 98.8005 39.3581 98.6583 39.2888C95.2413 37.6495 93.5328 34.9255 93.5328 31.1167C93.5328 23.641 93.5199 16.1653 93.5393 8.68964C93.5458 6.77864 93.2582 4.98972 91.875 3.53749L92.2176 3.16126L92.2273 3.15796Z" fill="black"></path><path d="M192.995 16.0572C194.915 14.7766 196.631 13.6314 198.589 12.3211C199.846 13.9483 201.107 15.5292 202.293 17.1663C202.509 17.4666 202.464 17.9947 202.467 18.4205C202.477 23.1633 202.509 27.9061 202.448 32.6457C202.435 33.6787 202.761 34.2629 203.663 34.626C204.477 34.956 205.266 35.3456 206.19 35.7647C204.836 37.0024 203.553 38.2005 202.234 39.3524C202.063 39.5009 201.692 39.4415 201.414 39.4316C201.271 39.425 201.129 39.3127 200.99 39.2434C197.636 37.6416 195.959 34.9814 195.959 31.2628C195.959 27.784 195.897 24.3053 195.991 20.8299C196.026 19.4833 195.655 18.4601 194.679 17.6052C194.152 17.1432 193.645 16.6514 192.998 16.054L192.995 16.0572Z" fill="black"></path><path d="M145.872 2.24591C147.436 3.74105 148.868 5.11739 150.203 6.39469C148.765 8.01525 147.404 9.54992 146.098 11.0219C144.534 9.39479 143.138 7.94259 141.92 6.67519C143.122 5.32857 144.444 3.84667 145.872 2.24921V2.24591Z" fill="black"></path><path d="M202.914 6.40805C201.47 8.05171 200.132 9.57331 198.871 11.0123C197.301 9.36538 195.911 7.90648 194.635 6.56977C195.743 5.32547 197.059 3.84357 198.49 2.22961C200.032 3.68845 201.496 5.07133 202.914 6.40805Z" fill="black"></path></svg> 